HIERARCHY
ROOT Hips
{
	OFFSET -339.306915 540.749023 89.171944
	CHANNELS 6 Xposition Yposition Zposition Zrotation Yrotation Xrotation
	JOINT Spine
	{
		OFFSET 0.000000 2.080078 8.814247
		CHANNELS 6 Xposition Yposition Zposition Zrotation Yrotation Xrotation
		JOINT Spine1
		{
			OFFSET 0.000000 0.000000 8.844139
			CHANNELS 6 Xposition Yposition Zposition Zrotation Yrotation Xrotation
			JOINT Spine2
			{
				OFFSET 0.000000 0.000000 11.682266
				CHANNELS 6 Xposition Yposition Zposition Zrotation Yrotation Xrotation
				JOINT Spine3
				{
					OFFSET 0.000000 0.000000 11.746696
					CHANNELS 6 Xposition Yposition Zposition Zrotation Yrotation Xrotation
					JOINT Neck
					{
						OFFSET 0.000000 0.000000 17.658264
						CHANNELS 6 Xposition Yposition Zposition Zrotation Yrotation Xrotation
						JOINT Neck1
						{
							OFFSET 0.000000 0.000000 5.101517
							CHANNELS 6 Xposition Yposition Zposition Zrotation Yrotation Xrotation
							JOINT Head
							{
								OFFSET 0.000000 0.000000 5.101517
								CHANNELS 6 Xposition Yposition Zposition Zrotation Yrotation Xrotation
								JOINT HeadEnd
								{
									OFFSET 0.000000 0.000000 11.655090
									CHANNELS 6 Xposition Yposition Zposition Zrotation Yrotation Xrotation
									End Site
									{
										OFFSET 0.000000 0.000000 0.100006
									}
								}
							}
						}
					}
					JOINT RightShoulder
					{
						OFFSET -2.625397 0.000000 11.175217
						CHANNELS 6 Xposition Yposition Zposition Zrotation Yrotation Xrotation
						JOINT RightArm
						{
							OFFSET 0.000000 0.000000 10.434708
							CHANNELS 6 Xposition Yposition Zposition Zrotation Yrotation Xrotation
							JOINT RightForeArm
							{
								OFFSET 0.000000 0.000000 29.628418
								CHANNELS 6 Xposition Yposition Zposition Zrotation Yrotation Xrotation
								JOINT RightHand
								{
									OFFSET 0.000000 0.000000 22.857605
									CHANNELS 6 Xposition Yposition Zposition Zrotation Yrotation Xrotation
									JOINT RightHandThumb1
									{
										OFFSET -2.867310 -2.944275 3.959564
										CHANNELS 6 Xposition Yposition Zposition Zrotation Yrotation Xrotation
										JOINT RightHandThumb2
										{
											OFFSET 0.000000 0.000000 3.350403
											CHANNELS 6 Xposition Yposition Zposition Zrotation Yrotation Xrotation
											JOINT RightHandThumb3
											{
												OFFSET 0.000000 0.000000 3.756516
												CHANNELS 6 Xposition Yposition Zposition Zrotation Yrotation Xrotation
												JOINT RightHandThumb4
												{
													OFFSET 0.000000 0.000000 3.147339
													CHANNELS 6 Xposition Yposition Zposition Zrotation Yrotation Xrotation
													End Site
													{
														OFFSET 0.000000 0.000000 0.100006
													}
												}
											}
										}
									}
									JOINT RightHandIndex1
									{
										OFFSET -0.086761 -2.345276 10.030899
										CHANNELS 6 Xposition Yposition Zposition Zrotation Yrotation Xrotation
										JOINT RightHandIndex2
										{
											OFFSET 0.000000 0.000000 4.061096
											CHANNELS 6 Xposition Yposition Zposition Zrotation Yrotation Xrotation
											JOINT RightHandIndex3
											{
												OFFSET 0.000000 0.000000 3.248871
												CHANNELS 6 Xposition Yposition Zposition Zrotation Yrotation Xrotation
												JOINT RightHandIndex4
												{
													OFFSET 0.000000 0.000000 2.639709
													CHANNELS 6 Xposition Yposition Zposition Zrotation Yrotation Xrotation
													End Site
													{
														OFFSET 0.000000 0.000000 0.100006
													}
												}
											}
										}
									}
									JOINT RightHandMiddle1
									{
										OFFSET 0.104095 -0.006775 9.502945
										CHANNELS 6 Xposition Yposition Zposition Zrotation Yrotation Xrotation
										JOINT RightHandMiddle2
										{
											OFFSET 0.000000 0.000000 4.568726
											CHANNELS 6 Xposition Yposition Zposition Zrotation Yrotation Xrotation
											JOINT RightHandMiddle3
											{
												OFFSET 0.000000 0.000000 3.654984
												CHANNELS 6 Xposition Yposition Zposition Zrotation Yrotation Xrotation
												JOINT RightHandMiddle4
												{
													OFFSET 0.000000 0.000000 2.741241
													CHANNELS 6 Xposition Yposition Zposition Zrotation Yrotation Xrotation
													End Site
													{
														OFFSET 0.000000 0.000000 0.100006
													}
												}
											}
										}
									}
									JOINT RightHandRing1
									{
										OFFSET 0.086761 2.267456 8.921707
										CHANNELS 6 Xposition Yposition Zposition Zrotation Yrotation Xrotation
										JOINT RightHandRing2
										{
											OFFSET 0.000000 0.000000 4.061096
											CHANNELS 6 Xposition Yposition Zposition Zrotation Yrotation Xrotation
											JOINT RightHandRing3
											{
												OFFSET 0.000000 0.000000 3.654984
												CHANNELS 6 Xposition Yposition Zposition Zrotation Yrotation Xrotation
												JOINT RightHandRing4
												{
													OFFSET 0.000000 0.000000 2.741241
													CHANNELS 6 Xposition Yposition Zposition Zrotation Yrotation Xrotation
													End Site
													{
														OFFSET 0.000000 0.000000 0.100006
													}
												}
											}
										}
									}
									JOINT RightHandPinky1
									{
										OFFSET -0.173492 4.467224 7.976990
										CHANNELS 6 Xposition Yposition Zposition Zrotation Yrotation Xrotation
										JOINT RightHandPinky2
										{
											OFFSET 0.000000 0.000000 3.350403
											CHANNELS 6 Xposition Yposition Zposition Zrotation Yrotation Xrotation
											JOINT RightHandPinky3
											{
												OFFSET 0.000000 0.000000 2.842758
												CHANNELS 6 Xposition Yposition Zposition Zrotation Yrotation Xrotation
												JOINT RightHandPinky4
												{
													OFFSET 0.000000 0.000000 2.639709
													CHANNELS 6 Xposition Yposition Zposition Zrotation Yrotation Xrotation
													End Site
													{
														OFFSET 0.000000 0.000000 0.100006
													}
												}
											}
										}
									}
									JOINT RightForeArmEnd
									{
										OFFSET 0.000000 0.000000 0.000000
										CHANNELS 6 Xposition Yposition Zposition Zrotation Yrotation Xrotation
										End Site
										{
											OFFSET 0.000000 0.000000 0.100006
										}
									}
								}
								JOINT RightArmEnd
								{
									OFFSET 0.000000 0.000000 0.000000
									CHANNELS 6 Xposition Yposition Zposition Zrotation Yrotation Xrotation
									End Site
									{
										OFFSET 0.000000 0.000000 0.100006
									}
								}
							}
						}
					}
					JOINT LeftShoulder
					{
						OFFSET 2.625397 0.000000 11.175217
						CHANNELS 6 Xposition Yposition Zposition Zrotation Yrotation Xrotation
						JOINT LeftArm
						{
							OFFSET 0.000000 0.000000 10.813629
							CHANNELS 6 Xposition Yposition Zposition Zrotation Yrotation Xrotation
							JOINT LeftForeArm
							{
								OFFSET 0.000000 0.000000 28.724777
								CHANNELS 6 Xposition Yposition Zposition Zrotation Yrotation Xrotation
								JOINT LeftHand
								{
									OFFSET 0.644379 0.328857 25.716171
									CHANNELS 6 Xposition Yposition Zposition Zrotation Yrotation Xrotation
									JOINT LeftHandThumb1
									{
										OFFSET 2.867310 -2.944275 3.959564
										CHANNELS 6 Xposition Yposition Zposition Zrotation Yrotation Xrotation
										JOINT LeftHandThumb2
										{
											OFFSET 0.000000 0.000000 3.350403
											CHANNELS 6 Xposition Yposition Zposition Zrotation Yrotation Xrotation
											JOINT LeftHandThumb3
											{
												OFFSET 0.000000 0.000000 3.756516
												CHANNELS 6 Xposition Yposition Zposition Zrotation Yrotation Xrotation
												JOINT LeftHandThumb4
												{
													OFFSET 0.000000 0.000000 3.100006
													CHANNELS 6 Xposition Yposition Zposition Zrotation Yrotation Xrotation
													End Site
													{
														OFFSET 0.000000 0.000000 0.100006
													}
												}
											}
										}
									}
									JOINT LeftHandIndex1
									{
										OFFSET 0.086761 -2.345276 10.030899
										CHANNELS 6 Xposition Yposition Zposition Zrotation Yrotation Xrotation
										JOINT LeftHandIndex2
										{
											OFFSET 0.000000 0.000000 4.061096
											CHANNELS 6 Xposition Yposition Zposition Zrotation Yrotation Xrotation
											JOINT LeftHandIndex3
											{
												OFFSET 0.000000 0.000000 3.248871
												CHANNELS 6 Xposition Yposition Zposition Zrotation Yrotation Xrotation
												JOINT LeftHandIndex4
												{
													OFFSET 0.000000 0.000000 2.639709
													CHANNELS 6 Xposition Yposition Zposition Zrotation Yrotation Xrotation
													End Site
													{
														OFFSET 0.000000 0.000000 0.100006
													}
												}
											}
										}
									}
									JOINT LeftHandMiddle1
									{
										OFFSET -0.104095 -0.006775 9.502945
										CHANNELS 6 Xposition Yposition Zposition Zrotation Yrotation Xrotation
										JOINT LeftHandMiddle2
										{
											OFFSET 0.000000 0.000000 4.568726
											CHANNELS 6 Xposition Yposition Zposition Zrotation Yrotation Xrotation
											JOINT LeftHandMiddle3
											{
												OFFSET 0.000000 0.000000 3.654984
												CHANNELS 6 Xposition Yposition Zposition Zrotation Yrotation Xrotation
												JOINT LeftHandMiddle4
												{
													OFFSET 0.000000 0.000000 2.741241
													CHANNELS 6 Xposition Yposition Zposition Zrotation Yrotation Xrotation
													End Site
													{
														OFFSET 0.000000 0.000000 0.100006
													}
												}
											}
										}
									}
									JOINT LeftHandRing1
									{
										OFFSET -0.086761 2.267456 8.921707
										CHANNELS 6 Xposition Yposition Zposition Zrotation Yrotation Xrotation
										JOINT LeftHandRing2
										{
											OFFSET 0.000000 0.000000 4.061096
											CHANNELS 6 Xposition Yposition Zposition Zrotation Yrotation Xrotation
											JOINT LeftHandRing3
											{
												OFFSET 0.000000 0.000000 3.654984
												CHANNELS 6 Xposition Yposition Zposition Zrotation Yrotation Xrotation
												JOINT LeftHandRing4
												{
													OFFSET 0.000000 0.000000 2.741241
													CHANNELS 6 Xposition Yposition Zposition Zrotation Yrotation Xrotation
													End Site
													{
														OFFSET 0.000000 0.000000 0.100006
													}
												}
											}
										}
									}
									JOINT LeftHandPinky1
									{
										OFFSET 0.173492 4.467224 7.976990
										CHANNELS 6 Xposition Yposition Zposition Zrotation Yrotation Xrotation
										JOINT LeftHandPinky2
										{
											OFFSET 0.000000 0.000000 3.350403
											CHANNELS 6 Xposition Yposition Zposition Zrotation Yrotation Xrotation
											JOINT LeftHandPinky3
											{
												OFFSET 0.000000 0.000000 2.842758
												CHANNELS 6 Xposition Yposition Zposition Zrotation Yrotation Xrotation
												JOINT LeftHandPinky4
												{
													OFFSET 0.000000 0.000000 2.639709
													CHANNELS 6 Xposition Yposition Zposition Zrotation Yrotation Xrotation
													End Site
													{
														OFFSET 0.000000 0.000000 0.100006
													}
												}
											}
										}
									}
									JOINT LeftForeArmEnd
									{
										OFFSET 0.000000 0.000000 0.000000
										CHANNELS 6 Xposition Yposition Zposition Zrotation Yrotation Xrotation
										End Site
										{
											OFFSET 0.000000 0.000000 0.100006
										}
									}
								}
								JOINT LeftArmEnd
								{
									OFFSET 0.000000 0.000000 0.000000
									CHANNELS 6 Xposition Yposition Zposition Zrotation Yrotation Xrotation
									End Site
									{
										OFFSET 0.000000 0.000000 0.100006
									}
								}
							}
						}
					}
				}
			}
		}
	}
	JOINT RightUpLeg
	{
		OFFSET -11.289948 0.000000 0.000000
		CHANNELS 6 Xposition Yposition Zposition Zrotation Yrotation Xrotation
		JOINT RightLeg
		{
			OFFSET 0.000000 0.000000 -38.200329
			CHANNELS 6 Xposition Yposition Zposition Zrotation Yrotation Xrotation
			JOINT RightFoot
			{
				OFFSET 0.000000 0.000000 -39.900856
				CHANNELS 6 Xposition Yposition Zposition Zrotation Yrotation Xrotation
				JOINT RightToeBase
				{
					OFFSET 0.000000 -15.261658 0.000001
					CHANNELS 6 Xposition Yposition Zposition Zrotation Yrotation Xrotation
					JOINT RightToeBaseEnd
					{
						OFFSET 0.000000 -7.370728 0.000001
						CHANNELS 6 Xposition Yposition Zposition Zrotation Yrotation Xrotation
						End Site
						{
							OFFSET 0.000000 0.000000 0.100000
						}
					}
				}
				JOINT RightLegEnd
				{
					OFFSET 0.000000 0.000000 0.000000
					CHANNELS 6 Xposition Yposition Zposition Zrotation Yrotation Xrotation
					End Site
					{
						OFFSET 0.000000 0.000000 0.100000
					}
				}
			}
			JOINT RightUpLegEnd
			{
				OFFSET 0.000000 0.000000 0.000000
				CHANNELS 6 Xposition Yposition Zposition Zrotation Yrotation Xrotation
				End Site
				{
					OFFSET 0.000000 0.000000 0.099998
				}
			}
		}
	}
	JOINT LeftUpLeg
	{
		OFFSET 11.315674 0.000000 0.000000
		CHANNELS 6 Xposition Yposition Zposition Zrotation Yrotation Xrotation
		JOINT LeftLeg
		{
			OFFSET 0.000000 0.000000 -38.200329
			CHANNELS 6 Xposition Yposition Zposition Zrotation Yrotation Xrotation
			JOINT LeftFoot
			{
				OFFSET 0.000000 0.000000 -39.900856
				CHANNELS 6 Xposition Yposition Zposition Zrotation Yrotation Xrotation
				JOINT LeftToeBase
				{
					OFFSET 0.000000 -15.261658 0.000001
					CHANNELS 6 Xposition Yposition Zposition Zrotation Yrotation Xrotation
					JOINT LeftToeBaseEnd
					{
						OFFSET 0.000000 -7.539978 0.000001
						CHANNELS 6 Xposition Yposition Zposition Zrotation Yrotation Xrotation
						End Site
						{
							OFFSET 0.000000 0.000000 0.100000
						}
					}
				}
				JOINT LeftLegEnd
				{
					OFFSET 0.000000 0.000000 0.000000
					CHANNELS 6 Xposition Yposition Zposition Zrotation Yrotation Xrotation
					End Site
					{
						OFFSET 0.000000 0.000000 0.100000
					}
				}
			}
			JOINT LeftUpLegEnd
			{
				OFFSET 0.000000 0.000000 0.000000
				CHANNELS 6 Xposition Yposition Zposition Zrotation Yrotation Xrotation
				End Site
				{
					OFFSET 0.000000 0.000000 0.099998
				}
			}
		}
	}
}
MOTION
Frames: 2
Frame Time: 0.016667
45.064850 -72.477966 86.164429 -16.952533 -5.340671 -12.523614 -0.000005 2.080049 8.814232 0.445604 5.494614 6.842104 -0.000005 0.000061 8.844132 0.271801 0.942673 2.772078 0.000011 0.000005 11.682287 0.518132 -0.000923 9.711963 0.000008 0.000008 11.746706 -0.312924 -0.594221 7.520233 0.000001 -0.000017 17.658272 3.099591 -0.682887 -7.646217 -0.000001 0.000000 5.101524 2.775420 -1.124955 -10.274396 -0.000008 -0.000001 5.101520 0.927498 -2.119809 -12.829821 -0.000045 -0.000001 11.655105 -0.000001 0.000000 0.000001 -2.625416 -0.000019 11.175225 9.718776 -86.604224 0.908515 -0.000044 -0.000008 10.434719 -64.427911 -46.888091 68.202383 -0.000006 -0.000019 29.628454 10.737571 -0.200731 30.404293 0.000000 -0.000093 22.857605 14.095402 5.831810 -1.248765 -2.867317 -2.944183 3.959595 31.555498 -17.972637 50.443723 0.000034 0.000038 3.350403 -14.241480 9.016060 -25.485924 0.000011 -0.000027 3.756523 -9.455619 6.949677 -17.427019 -0.000034 -0.000003 3.147340 0.000000 0.000000 -0.000001 -0.086727 -2.345266 10.030902 5.269365 -20.946910 -0.038438 0.000004 -0.000008 4.061106 -0.232240 -14.585884 -2.092818 -0.000022 -0.000001 3.248877 0.267976 -14.585918 -2.093176 0.000009 -0.000002 2.639729 0.000000 -0.000003 0.000001 0.104121 -0.006725 9.502968 0.478612 -17.610627 0.881843 0.000019 0.000056 4.568709 -0.427106 -12.444175 -0.660860 0.000038 0.000008 3.654986 0.084489 -12.444193 -0.663342 -0.000004 0.000003 2.741273 0.000000 0.000002 -0.000001 0.086796 2.267537 8.921717 -7.040769 -13.325899 2.107378 0.000003 -0.000010 4.061122 0.939585 -9.544724 0.579747 -0.000006 0.000001 3.654998 -0.058557 -9.544482 0.589061 0.000007 -0.000007 2.741261 0.000000 -0.000000 -0.000001 -0.173452 4.467212 7.976984 -14.642249 -8.271552 1.795918 0.000015 0.000088 3.350419 1.947064 -5.904574 1.151215 0.000029 -0.000026 2.842774 -0.053798 -5.904574 1.151319 -0.000008 -0.000001 2.639712 0.000001 0.000000 0.000002 0.000024 0.000059 0.000002 0.000001 0.000000 -0.000003 -0.000005 -0.000005 0.000019 0.000001 -0.000001 -0.000001 2.625408 -0.000013 11.175244 -14.743904 84.575227 -0.362657 0.000015 0.000004 10.813629 67.467072 28.628140 59.545412 0.000025 -0.000023 28.724760 -11.194195 0.001168 40.736293 0.644364 0.328834 25.716190 -2.729723 1.548413 -13.645840 2.867287 -2.944260 3.959610 -31.519882 18.507014 49.649526 -0.000023 0.000023 3.350433 15.431392 -9.409781 -27.446022 0.000008 0.000015 3.756512 10.228834 -7.339180 -18.751798 0.000005 -0.000003 3.100031 0.000001 0.000001 0.000000 0.086754 -2.345262 10.030884 13.972457 24.191487 5.844179 -0.000007 0.000005 4.061125 -0.100677 17.449267 2.536643 -0.000002 -0.000028 3.248917 0.399234 17.449235 2.536983 0.000003 -0.000007 2.639698 0.000001 -0.000001 -0.000000 -0.104111 -0.006788 9.502960 8.097006 22.867892 3.284128 0.000005 0.000005 4.568712 -0.363467 16.356607 0.893876 0.000002 0.000018 3.654996 0.133892 16.356548 0.891742 0.000009 -0.000000 2.741255 -0.000000 0.000000 -0.000000 -0.086785 2.267470 8.921722 -0.549349 23.486621 1.894005 -0.000004 -0.000014 4.061090 0.847179 16.517645 -1.035685 -0.000006 -0.000019 3.654986 -0.150266 16.517621 -1.035969 -0.000030 0.000002 2.741284 0.000000 -0.000001 -0.000000 0.173470 4.467234 7.977018 -9.910686 22.649413 -1.542265 -0.000004 0.000023 3.350405 1.573417 15.623796 -3.115781 -0.000014 0.000027 2.842747 -0.426880 15.623614 -3.115847 -0.000011 -0.000003 2.639724 0.000000 -0.000002 -0.000001 -0.000026 0.000000 0.000006 -0.000000 0.000001 -0.000000 0.000002 -0.000004 0.000010 0.000000 -0.000001 -0.000000 -11.289958 -0.000020 0.000008 -0.857313 21.267648 -3.309640 0.000000 0.000033 -38.200325 -1.553329 0.388419 14.035694 -0.000008 0.000024 -39.900848 -13.249311 -5.618231 28.105580 0.000002 -15.261638 0.000008 0.327068 2.679349 -21.327570 -0.000007 -7.370657 0.000000 -0.000002 0.000000 -0.000001 -0.000002 0.000065 -0.000002 -0.000001 0.000000 -0.000000 -0.000009 -0.000003 -0.000003 0.000001 -0.000001 0.000001 11.315649 0.000021 0.000011 14.497580 9.362421 16.233297 -0.000003 0.000085 -38.200333 -0.113116 0.018603 8.131979 0.000016 0.000006 -39.900856 11.496687 -8.476363 11.567756 -0.000013 -15.261640 0.000007 -0.665032 1.115935 -16.590748 -0.000008 -7.539918 0.000001 0.000000 0.000000 0.000000 0.000000 0.000004 -0.000000 -0.000001 0.000000 -0.000001 -0.000027 -0.000000 -0.000005 -0.000000 -0.000000 -0.000000 
45.000488 -72.414246 86.177925 -17.471759 -5.259689 -12.508054 0.000014 2.080067 8.814232 0.478017 5.540156 7.025333 0.000036 0.000054 8.844131 0.259605 0.906535 2.950896 0.000009 -0.000020 11.682279 0.486486 -0.048035 9.667443 -0.000000 -0.000012 11.746708 -0.326994 -0.625682 7.547573 0.000007 0.000017 17.658287 3.081715 -0.498207 -8.426413 -0.000005 0.000018 5.101524 2.683379 -1.025679 -10.778920 -0.000040 -0.000007 5.101557 0.908115 -2.084973 -12.853219 0.000006 0.000000 11.655108 -0.000000 -0.000000 -0.000001 -2.625416 0.000002 11.175208 9.798752 -86.303279 0.896072 -0.000017 -0.000019 10.434708 -64.669303 -46.795972 68.463767 0.000000 -0.000008 29.628447 10.837121 -0.192195 30.781972 0.000008 -0.000081 22.857597 13.624222 6.075980 -1.094975 -2.867310 -2.944321 3.959526 31.555494 -17.972617 50.443730 0.000011 -0.000015 3.350422 -14.241473 9.016057 -25.485924 0.000038 0.000004 3.756531 -9.455618 6.949677 -17.427007 -0.000003 -0.000068 3.147340 0.000000 0.000001 0.000001 -0.086761 -2.345325 10.030884 5.279891 -20.867369 -0.065820 0.000005 -0.000005 4.061102 -0.235964 -14.533446 -2.087393 0.000008 0.000026 3.248863 0.264272 -14.533398 -2.087477 -0.000009 -0.000007 2.639704 0.000001 -0.000001 0.000000 0.104098 -0.006845 9.502924 0.490857 -17.535312 0.795543 -0.000011 0.000027 4.568720 -0.429373 -12.394477 -0.659682 -0.000012 -0.000000 3.654999 0.078303 -12.394475 -0.661325 0.000005 0.000008 2.741267 -0.000001 0.000002 0.000000 0.086761 2.267406 8.921700 -7.027630 -13.274454 1.913026 -0.000007 0.000003 4.061105 0.944073 -9.497468 0.579155 -0.000004 0.000029 3.654986 -0.054704 -9.497282 0.587265 -0.000009 -0.000006 2.741252 0.000000 0.000000 0.000001 -0.173496 4.467248 7.976956 -14.627315 -8.262381 1.483443 -0.000006 0.000027 3.350409 1.944674 -5.849381 1.140725 0.000008 0.000033 2.842764 -0.055741 -5.849174 1.140771 -0.000015 -0.000005 2.639725 0.000001 -0.000000 0.000002 0.000005 -0.000063 -0.000030 0.000000 -0.000001 0.000000 -0.000023 -0.000004 0.000007 0.000001 -0.000000 0.000001 2.625370 -0.000006 11.175200 -14.778147 84.187730 -0.360942 0.000046 0.000025 10.813660 67.669204 28.690910 59.997877 -0.000023 -0.000053 28.724768 -11.192836 -0.030557 40.724778 0.644370 0.328894 25.716162 -2.786825 1.352672 -13.531211 2.867302 -2.944275 3.959587 -31.519878 18.507012 49.649516 0.000000 -0.000046 3.350407 15.431393 -9.409804 -27.445986 -0.000015 0.000023 3.756489 10.228838 -7.339149 -18.751823 0.000007 0.000001 3.100004 0.000000 0.000001 -0.000001 0.086746 -2.345269 10.030910 13.966663 24.117849 5.868035 -0.000023 -0.000029 4.061094 -0.103152 17.400843 2.537553 0.000004 -0.000000 3.248919 0.396636 17.400812 2.537163 -0.000001 -0.000001 2.639702 0.000000 0.000001 0.000000 -0.104103 -0.006785 9.502958 8.091352 22.795159 3.325653 0.000002 -0.000006 4.568729 -0.366248 16.307025 0.890281 0.000008 -0.000027 3.654964 0.132109 16.306814 0.888452 -0.000002 0.000000 2.741240 -0.000000 -0.000001 0.000000 -0.086770 2.267457 8.921730 -0.563496 23.407775 1.950402 -0.000002 0.000016 4.061117 0.848830 16.458601 -1.034390 -0.000015 -0.000029 3.654985 -0.149399 16.458603 -1.034110 -0.000009 -0.000000 2.741251 0.000000 0.000002 -0.000000 0.173492 4.467205 7.977005 -9.921389 22.570608 -1.443222 0.000010 -0.000002 3.350397 1.576248 15.557631 -3.101752 0.000015 -0.000027 2.842756 -0.423979 15.555085 -3.102119 -0.000019 -0.000007 2.639719 0.000002 -0.000001 0.000000 -0.000002 -0.000003 0.000041 0.000000 -0.000001 -0.000000 0.000002 0.000003 -0.000005 -0.000000 -0.000000 0.000001 -11.289943 -0.000016 -0.000008 -0.664445 20.980062 -3.689592 -0.000010 -0.000036 -38.200352 -1.436113 0.373489 14.574831 -0.000004 0.000044 -39.900845 -13.056945 -5.135849 27.206423 -0.000016 -15.261662 0.000010 0.226046 2.604963 -21.733865 -0.000006 -7.370734 -0.000001 0.000001 0.000000 -0.000000 -0.000014 0.000068 -0.000001 -0.000001 0.000000 -0.000000 -0.000012 -0.000003 -0.000001 0.000000 -0.000001 0.000000 11.315662 0.000017 0.000000 14.620834 9.221255 16.048125 -0.000017 0.000072 -38.200333 -0.128776 0.020471 8.404859 0.000001 -0.000056 -39.900856 11.878207 -8.236107 11.485144 -0.000001 -15.261623 0.000015 -0.667265 1.103638 -16.654462 -0.000006 -7.539978 0.000001 -0.000000 0.000000 -0.000000 -0.000000 -0.000001 0.000006 0.000000 -0.000000 0.000001 -0.000001 -0.000001 -0.000002 0.000000 -0.000000 -0.000001 
